<svg width="275" height="369" viewBox="0 0 275 369" fill="none" xmlns="http://www.w3.org/2000/svg">
<path d="M69.0765 212.039C68.0507 210.914 67.0673 209.746 65.9922 208.669C58.018 200.684 51.1013 191.846 45.5204 182.075C40.5209 173.322 36.2421 164.198 34.0417 154.246C33.138 150.158 31.8882 146.145 31.0369 142.049C30.4376 139.165 30.0909 136.206 29.9062 133.264C29.6168 128.652 29.4065 124.025 29.439 119.406C29.4899 112.179 30.7294 105.102 32.017 97.9828C33.7145 88.5978 36.784 79.7133 40.7435 71.1769C44.4261 63.2375 48.7153 55.5237 54.506 48.8296C58.6199 44.0738 62.6707 39.2229 67.1836 34.8614C73.7389 28.526 80.9118 22.8876 88.9981 18.5446C93.9311 15.8953 98.792 13.0411 103.939 10.881C108.454 8.98608 113.304 7.86139 118.042 6.52693C121.43 5.57283 124.848 4.66234 128.309 4.04406C132.49 3.29714 136.717 2.75096 140.947 2.35801C144.626 2.01622 148.351 1.72597 152.03 1.91286C159.392 2.28684 166.708 2.90863 173.988 4.4618C182.831 6.3486 191.435 8.838 199.585 12.6466C204.79 15.0787 209.842 17.9578 214.617 21.1513C220.393 25.0145 226.057 29.1315 231.293 33.6843C235.521 37.3606 239.235 41.687 242.835 46.008C249.274 53.7364 254.849 62.1314 258.823 71.3538C262.063 78.8748 264.851 86.6731 266.944 94.5844C270.139 106.662 270.565 119.144 269.741 131.54C269.26 138.778 267.958 145.99 265.88 153.062C264.024 159.383 262.031 165.599 259.295 171.595C255.766 179.33 251.663 186.714 246.292 193.337C243.016 197.377 239.782 201.471 236.233 205.264C233.488 208.198 230.283 210.702 227.022 213.319C226.699 213.177 226.636 213.113 226.661 212.925C251.04 191.777 264.988 165.3 268.323 133.41C269.979 117.577 268.17 102.006 263.497 86.7459C245.102 26.6745 181.026 -9.1135 120.212 6.78194C69.2422 20.1044 33.5501 63.4607 30.6905 115.766C29.1852 143.302 36.4379 168.474 52.5586 190.857C57.4709 197.678 63.5809 203.639 69.131 210.198C69.1053 210.948 69.0909 211.494 69.0765 212.039Z" fill="#F4F4F4"/>
<path d="M226.857 213.335C222.746 218.362 217.169 221.539 211.785 224.875C203.997 229.702 195.717 233.66 186.908 236.238C180.949 237.983 174.848 239.435 168.71 240.328C161.535 241.371 154.258 241.83 147.008 242.205C143.923 242.365 140.789 241.705 137.685 241.349C135.942 241.15 134.799 241.751 133.978 243.335C130.196 250.63 126.351 257.893 122.524 265.166C121.654 266.821 120.768 268.468 119.59 270.179C119.097 270.238 118.903 270.237 118.7 270.129C118.692 270.022 118.673 269.809 118.795 269.705C123.168 261.679 127.672 253.879 131.567 245.787C133.649 241.462 135.912 240.159 140.98 240.587C160.249 242.211 178.896 239.04 196.726 231.394C207.583 226.738 217.434 220.477 226.572 213.05C226.636 213.113 226.699 213.177 226.857 213.335Z" fill="#F4F4F4"/>
<path d="M69 211.739C69.0023 211.099 69.0193 210.64 69.1801 210.045C69.3911 209.954 69.4584 210 69.5265 210.188C69.6678 210.861 69.8082 211.393 69.972 212.107C69.9985 246.007 70.0021 279.725 69.9991 313.443C69.9991 313.962 69.9156 314.48 69.7438 315C69.4468 315 69.277 314.999 69.1073 314.999C69.0771 314.282 69.0206 313.565 69.0205 312.848C69.0155 279.205 69.0154 245.562 69 211.739Z" fill="#E6EAFF"/>
<path d="M118.088 270C118.294 270.001 118.501 270.002 118.862 270.009C118.832 289.459 118.627 308.904 118.489 328.349C118.471 330.843 118.806 333.338 118.971 335.834C119.033 336.786 119.175 337.771 117.168 338C116.967 337.745 116.962 337.611 117.07 337.439C117.267 337.307 117.352 337.214 117.506 337.044C117.602 336.91 117.629 336.853 117.763 336.679C117.902 336.225 117.961 335.89 117.961 335.554C117.966 318.352 117.974 301.149 117.96 283.947C117.957 279.395 117.886 274.844 117.883 270.21C117.976 270.085 118.032 270.043 118.088 270Z" fill="#DEEAFE"/>
<path d="M68.3139 312.099C68.4814 311.902 68.6249 311.894 68.9327 312.064C69.3291 312.927 69.5612 313.613 69.8706 314.425C71.3836 315.723 72.8116 316.905 74.2561 318.067C82.3828 324.604 90.5135 331.137 98.7149 337.786C98.9466 337.982 99.1062 338.063 99.3313 338.233C99.5122 338.417 99.6422 338.485 99.8413 338.632C100.022 338.941 100.149 339.143 100.275 339.345C99.0761 338.818 97.6891 338.523 96.7084 337.728C89.3531 331.768 82.0822 325.704 74.7743 319.685C73.1839 318.376 71.401 317.259 69.9931 315.782C69.1407 314.888 68.839 313.471 68.3139 312.099Z" fill="#E6F0FF"/>
<path d="M99.6094 338.347C99.3218 338.059 99.2077 337.849 99.2624 337.527C105.503 337.42 111.575 337.426 117.647 337.432C117.651 337.617 117.655 337.803 117.665 338.127C116.239 338.137 114.796 337.836 113.374 337.912C109.26 338.129 105.155 338.512 101.044 338.787C100.633 338.815 100.204 338.553 99.6094 338.347Z" fill="#BCC1DB"/>
<path d="M69.5341 210.243C69.4771 210.188 69.4202 210.134 69.2528 210.037C63.5809 203.639 57.4708 197.677 52.5586 190.857C36.4378 168.474 29.1851 143.302 30.6905 115.766C33.55 63.4606 69.2422 20.1043 120.212 6.78184C181.026 -9.1136 245.102 26.6744 263.497 86.7458C268.17 102.006 269.979 117.577 268.323 133.41C264.988 165.299 251.04 191.777 226.661 212.925C217.434 220.477 207.583 226.738 196.726 231.394C178.896 239.04 160.249 242.211 140.98 240.587C135.912 240.159 133.649 241.461 131.567 245.786C127.672 253.879 123.168 261.679 118.768 269.487C118.607 246.384 118.594 223.394 118.588 200.405C118.588 200.021 118.665 199.637 118.912 199.211C129.232 199.174 139.35 199.345 149.458 199.114C154.56 198.997 159.724 198.553 164.726 197.575C204.459 189.808 231.606 151.599 225.864 111.751C220.426 74.0075 187.971 45.7881 149.719 45.6606C124.824 45.5776 99.9281 45.6428 75.0328 45.6487C74.4114 45.6488 73.7901 45.7326 72.8274 45.8019C87.0559 59.9947 100.957 73.8838 114.92 87.7112C115.527 88.3121 116.697 88.5982 117.607 88.6035C128.109 88.6651 138.613 88.604 149.115 88.6538C166.77 88.7374 180.916 101.241 183.222 118.733C185.663 137.259 170.295 155.558 151.594 156.045C140.634 156.33 129.659 156.092 118.652 155.874C118.635 150.052 118.656 144.447 118.841 138.844C119.78 139.428 120.735 139.874 121.293 140.617C122.684 142.469 123.75 144.574 125.211 146.362C127.247 148.853 129.726 150.979 133.06 151.344C135.714 151.634 138.423 151.419 141.108 151.42C148.111 151.423 155.116 151.338 162.117 151.452C166.335 151.521 169.184 148.897 171.446 146.18C173.832 143.313 175.856 140.094 177.075 136.231C179.023 130.058 179.139 124.115 177.654 117.991C177.517 117.425 176.889 116.977 176.489 116.284C176.464 115.63 176.554 115.124 176.399 114.708C174.808 110.423 172.846 106.287 169.632 102.997C167.973 101.3 165.888 99.3407 163.731 98.9469C159.584 98.1899 155.25 98.385 150.991 98.328C145.239 98.2509 139.484 98.2494 133.733 98.358C132.577 98.3798 131.275 98.8034 130.311 99.4462C125.798 102.456 122.766 106.699 120.585 111.603C119.991 112.938 119.306 114.232 118.627 115.369C118.545 113.77 117.94 113.38 116.667 114.127C115.067 115.066 113.471 116.015 111.84 116.899C98.6754 124.042 85.4992 131.164 72.3354 138.308C69.5417 139.824 69.1138 141.053 70.0372 144.642C70.0269 165.062 70.0406 185.265 69.9584 205.536C69.9238 205.869 69.9853 206.132 70.0276 206.6C70.0201 207.76 70.0317 208.716 69.9517 209.708C69.7498 209.831 69.6895 209.944 69.6227 210.105C69.5665 210.127 69.5341 210.243 69.5341 210.243Z" fill="#323232"/>
<path d="M118.972 136.446C118.95 141.464 118.929 146.483 118.834 151.839C118.71 152.448 118.617 152.719 118.616 152.99C118.609 164.977 118.604 176.964 118.625 188.95C118.626 189.477 118.869 190.003 119 190.529C118.959 190.873 118.882 191.216 118.882 191.56C118.889 212.141 118.901 232.723 118.94 253.499C118.967 253.694 118.986 253.884 118.995 253.98C118.95 254.128 118.897 254.181 118.684 254.47C118.485 255.189 118.413 255.671 118.413 256.154C118.407 282.374 118.405 308.595 118.414 334.815C118.414 335.432 118.533 336.049 118.597 336.666C118.572 336.737 118.547 336.808 118.308 336.961C117.896 337.027 117.697 337.01 117.496 336.901C117.494 336.808 117.495 336.623 117.623 336.495C117.82 335.613 117.951 334.858 117.952 334.103C117.959 286.637 118.003 239.171 117.934 191.704C117.9 167.882 117.659 144.059 117.511 120.237C117.51 120.028 117.505 119.819 117.51 119.611C117.551 118.087 116.895 117.746 115.378 118.494C111.336 120.486 107.233 122.381 103.208 124.4C98.8765 126.572 94.6509 128.916 90.2954 131.048C85.7167 133.289 80.9038 135.17 76.4644 137.605C74.4047 138.735 71.6345 139.16 70.4542 141.445C69.5087 138.427 69.9357 137.326 72.7237 135.969C85.8608 129.573 99.0102 123.197 112.148 116.803C113.776 116.011 115.369 115.162 116.966 114.321C118.236 113.652 118.84 114.001 118.883 115.627C118.915 121.825 118.949 127.674 118.941 133.702C118.923 134.737 118.948 135.591 118.972 136.446Z" fill="#0927BB"/>
<path d="M70.0486 210.534C70.0339 211.056 70.0193 211.578 69.9484 212.288C69.7733 211.844 69.6544 211.211 69.5348 210.411C69.5341 210.243 69.5665 210.127 69.689 210.199C69.8824 210.304 69.9533 210.336 70.0048 210.413C69.9853 210.458 70.0486 210.534 70.0486 210.534Z" fill="#A3B4F9"/>
<path d="M118.603 337C118.261 336.62 118.013 336.123 118.012 335.626C117.995 314.509 117.998 293.391 118.01 272.274C118.011 271.886 118.161 271.497 118.502 271C118.841 275.424 118.979 279.956 118.986 284.489C119.012 301.619 118.996 318.75 118.987 335.88C118.987 336.214 118.873 336.549 118.603 337Z" fill="#859CFF"/>
<path d="M117.202 336.856C117.401 336.875 117.599 336.894 117.948 336.926C118.017 337.068 117.937 337.197 117.752 337.379C111.575 337.426 105.503 337.42 99.214 337.418C98.8552 337.372 98.7295 337.296 98.7774 337.074C105.024 336.922 111.113 336.889 117.202 336.856Z" fill="#9BAAFF"/>
<path d="M70.1672 200.817C70.036 200.681 69.9722 200.613 70.0115 200.417C70.0441 200.117 70.0373 200.012 70.0305 199.908C70.0189 199.05 70.0073 198.193 70.1191 197.093C70.1755 196.613 70.1086 196.374 70.0417 196.136C70.0279 178.014 70.0141 159.892 70.0245 141.574C71.2398 139.09 74.0352 138.664 76.1137 137.532C80.5936 135.092 85.4504 133.207 90.0708 130.961C94.4661 128.825 98.7302 126.476 103.101 124.3C107.163 122.277 111.303 120.378 115.382 118.382C116.912 117.633 117.575 117.975 117.534 119.502C117.528 119.71 117.533 119.919 117.535 120.128C117.683 143.999 117.927 167.869 117.962 191.739C118.031 239.301 117.987 286.862 117.979 334.424C117.979 335.18 117.847 335.936 117.426 336.825C110.748 336.972 104.419 336.986 98.0901 337C90.3074 330.717 82.5232 324.435 74.7433 318.149C73.3605 317.032 71.9954 315.897 70.5519 314.655C70.4846 277.295 70.4887 240.051 70.4828 202.807C70.4827 202.189 70.3626 201.571 70.1672 200.817Z" fill="#0029F7"/>
<path d="M97.971 336.619C104.19 336.485 110.475 336.47 116.979 336.448C117.198 336.443 117.197 336.65 117.199 336.753C111.113 336.889 105.024 336.922 98.7173 336.982C98.3452 336.919 98.1907 336.828 97.971 336.619Z" fill="#132CB6"/>
<path d="M118.912 199.211C118.575 198.665 118.331 198.077 118.33 197.489C118.309 184.1 118.314 170.711 118.322 157.321C118.322 157.019 118.416 156.716 118.579 156.252C129.659 156.093 140.634 156.331 151.594 156.045C170.295 155.558 185.663 137.259 183.222 118.733C180.916 101.241 166.77 88.7375 149.115 88.6539C138.613 88.6041 128.109 88.6652 117.607 88.6036C116.697 88.5983 115.527 88.3122 114.92 87.7113C100.957 73.8839 87.0559 59.9947 72.8274 45.802C73.7901 45.7327 74.4114 45.6489 75.0328 45.6488C99.9281 45.6429 124.824 45.5777 149.719 45.6607C187.971 45.7882 220.426 74.0076 225.864 111.751C231.606 151.599 204.459 189.808 164.726 197.575C159.724 198.553 154.56 198.997 149.458 199.114C139.35 199.345 129.232 199.174 118.912 199.211ZM182.563 141.37C181.918 142.797 181.88 144.08 183.471 144.928C185.413 145.963 187.293 147.186 189.347 147.911C190.321 148.255 191.638 147.633 192.8 147.449C192.631 146.397 192.462 145.346 192.368 144.016C191.965 143.355 191.718 142.405 191.129 142.086C189.228 141.058 187.17 140.324 185.232 139.358C183.342 138.416 182.644 139.106 182.563 141.37ZM197.033 108.417C197.257 107.229 196.827 106.588 195.56 106.806C192.679 107.303 189.797 107.8 186.932 108.377C184.913 108.784 185.222 109.735 186.13 110.824C185.046 110.75 184.375 111.22 184.928 112.272C185.392 113.153 186.251 114.497 186.914 114.485C189.505 114.441 192.108 114.048 194.669 113.58C197.595 113.046 198.224 111.54 197.033 108.417ZM191.551 98.4621C192.304 96.4985 191.42 96.2185 189.83 96.8797C187.129 98.0025 184.422 99.125 181.81 100.433C181.243 100.717 181.07 101.785 180.458 102.723C179.798 105.947 181.019 107.491 183.573 106.548C185.797 105.728 188.102 104.961 190.098 103.73C192.696 102.128 193.949 100.625 191.551 98.4621ZM197.19 133.353C197.88 132.296 197.624 131.548 196.366 131.402C193.289 131.048 190.205 130.743 187.117 130.498C185.361 130.359 185.049 131.195 185.839 132.988C185.143 135.315 185.779 136.727 187.757 136.932C190.117 137.177 192.491 137.374 194.861 137.406C197.586 137.442 198.394 135.926 197.19 133.353ZM197.748 121.859C198.46 120.232 197.448 119.954 196.199 119.944C193.405 119.92 190.61 119.957 187.816 119.926C186.281 119.909 185.885 120.622 186.317 122.361C185.62 125.313 185.598 125.44 188.638 125.969C190.522 126.297 192.487 126.252 194.414 126.227C197.786 126.183 198.352 125.38 197.748 121.859Z" fill="#FEFEFE"/>
<path d="M118.689 135.575C118.655 129.042 118.621 122.51 118.625 115.761C119.306 114.232 119.991 112.938 120.585 111.603C122.766 106.699 125.798 102.456 130.311 99.4462C131.275 98.8035 132.577 98.3799 133.733 98.358C139.484 98.2494 145.239 98.2509 150.991 98.328C155.25 98.385 159.584 98.1899 163.731 98.9469C165.888 99.3407 167.973 101.3 169.632 102.997C172.846 106.287 174.808 110.423 176.399 114.708C176.554 115.124 176.464 115.63 176.512 116.471C178.072 122.213 177.387 127.515 176.255 132.852C175.161 138.004 172.483 142.326 169.18 146.213C167.636 148.03 165.933 150.087 162.927 150.058C153.142 149.963 143.356 150.049 133.57 149.982C132.554 149.975 131.451 149.581 130.542 149.085C126.029 146.62 123.628 142.406 121.374 138.025C120.855 137.016 119.604 136.382 118.689 135.575ZM132.552 116.561C131.37 115.025 130.234 115.307 129.147 116.663C125.047 121.772 124.997 122.562 128.375 128.228C129.918 130.816 130.607 130.92 133.299 128.949C133.379 128.939 133.458 128.928 133.811 129.145C135.556 130.198 136.39 129.093 137.021 127.543C137.946 128.862 137.975 131.148 140.285 130.12C142.612 129.085 144.927 129.233 146.764 130.961C150.2 134.196 154.262 135.397 158.917 135.131C164.782 134.796 169.327 130.526 170.008 124.531C170.714 118.314 167.216 112.755 161.509 111.332C156.22 110.014 151.467 111.091 147.109 114.543C145.583 115.752 142.622 117.253 141.625 116.608C139.414 115.177 138.412 115.732 137.232 117.529C135.908 115.023 135.128 114.963 132.85 116.957C132.773 116.933 132.697 116.91 132.552 116.561Z" fill="#262626"/>
<path d="M118.647 135.776C119.604 136.382 120.855 137.016 121.374 138.026C123.628 142.406 126.029 146.62 130.542 149.085C131.451 149.581 132.554 149.976 133.57 149.982C143.356 150.049 153.142 149.963 162.927 150.058C165.933 150.087 167.636 148.03 169.18 146.213C172.483 142.326 175.161 138.004 176.255 132.852C177.387 127.515 178.072 122.213 176.513 116.662C176.889 116.978 177.517 117.425 177.654 117.991C179.139 124.115 179.023 130.058 177.075 136.231C175.856 140.094 173.832 143.313 171.446 146.18C169.184 148.897 166.335 151.521 162.117 151.452C155.116 151.338 148.111 151.423 141.108 151.42C138.423 151.419 135.714 151.635 133.06 151.344C129.726 150.979 127.247 148.853 125.211 146.363C123.75 144.574 122.684 142.469 121.293 140.617C120.735 139.874 119.78 139.428 118.841 138.844C118.653 137.886 118.629 136.932 118.647 135.776Z" fill="#2D2D2D"/>
<path d="M69.9584 205.536C70.1208 205.733 70.1872 205.999 70.1502 206.33C69.9853 206.132 69.9238 205.869 69.9584 205.536Z" fill="#0927BB"/>
<path d="M174.404 143.255C174.418 143.28 174.391 143.231 174.404 143.255Z" fill="#2D2D2D"/>
<path d="M69.9516 209.708C70.0499 209.789 70.0567 209.905 70.0438 210.194C69.9533 210.336 69.8824 210.304 69.7452 210.178C69.6895 209.944 69.7498 209.831 69.9516 209.708Z" fill="#0927BB"/>
<path d="M197.507 122.122C198.352 125.38 197.786 126.183 194.414 126.227C192.487 126.252 190.522 126.296 188.638 125.969C185.598 125.44 185.62 125.313 186.537 122.22C190.341 122.093 193.924 122.108 197.507 122.122Z" fill="#DBDBDB"/>
<path d="M196.998 133.65C198.394 135.925 197.586 137.441 194.861 137.405C192.491 137.374 190.117 137.177 187.757 136.932C185.779 136.726 185.143 135.315 186.074 132.834C189.872 133.004 193.435 133.327 196.998 133.65Z" fill="#DEDEDE"/>
<path d="M197.094 133.502C193.435 133.327 189.872 133.004 186.109 132.65C185.049 131.195 185.361 130.358 187.117 130.498C190.205 130.743 193.289 131.047 196.366 131.402C197.624 131.547 197.88 132.296 197.094 133.502Z" fill="#111111"/>
<path d="M180.715 102.491C181.07 101.785 181.243 100.717 181.81 100.433C184.422 99.125 187.129 98.0025 189.83 96.8797C191.42 96.2185 192.304 96.4985 191.296 98.6223C190.56 99.0399 190.077 99.2974 189.44 99.5582C186.733 100.681 184.18 101.801 181.514 102.864C181.172 102.701 180.943 102.596 180.715 102.491Z" fill="#111111"/>
<path d="M186.493 110.799C185.222 109.735 184.913 108.784 186.932 108.377C189.797 107.8 192.679 107.303 195.56 106.806C196.827 106.588 197.257 107.229 196.815 108.641C196.081 108.994 195.565 109.123 194.853 109.256C192.035 109.748 189.413 110.235 186.703 110.69C186.615 110.657 186.493 110.799 186.493 110.799Z" fill="#0E0E0E"/>
<path d="M197.627 121.99C193.924 122.108 190.341 122.093 186.546 122.031C185.885 120.621 186.281 119.909 187.816 119.926C190.61 119.957 193.405 119.92 196.199 119.944C197.448 119.954 198.46 120.232 197.627 121.99Z" fill="#191919"/>
<path d="M182.631 141C182.644 139.106 183.342 138.416 185.232 139.358C187.17 140.324 189.228 141.058 191.129 142.086C191.718 142.405 191.965 143.355 192.222 144.18C192.076 144.344 191.898 144.477 191.72 144.461C189.368 143.583 187.195 142.72 184.891 141.763C184.051 141.445 183.341 141.223 182.631 141Z" fill="#111111"/>
<path d="M195.049 109.252C195.565 109.123 196.081 108.993 196.748 108.808C198.224 111.54 197.595 113.046 194.669 113.58C192.108 114.047 189.505 114.441 186.914 114.485C186.251 114.497 185.392 113.153 184.928 112.272C184.375 111.22 185.046 110.75 186.311 110.812C186.493 110.799 186.615 110.657 186.683 110.866C186.346 113.248 186.997 113.886 189.104 113.451C190.446 113.175 191.797 112.878 193.158 112.768C196.023 112.538 196.524 111.668 195.049 109.252Z" fill="#ECECEC"/>
<path d="M180.586 102.607C180.943 102.596 181.172 102.701 181.495 103.043C181.472 103.847 181.353 104.414 181.14 105.434C184.959 105.016 188.117 103.678 190.831 101.721C192.338 100.634 190.855 99.8362 189.595 99.5549C190.077 99.2974 190.56 99.0399 191.207 98.7676C193.949 100.625 192.696 102.128 190.098 103.73C188.102 104.961 185.797 105.728 183.573 106.549C181.019 107.491 179.798 105.947 180.586 102.607Z" fill="#EEEEEE"/>
<path d="M182.597 141.185C183.341 141.223 184.051 141.445 184.802 141.913C183.628 143.099 183.868 144.004 185.038 144.686C186.301 145.421 187.606 146.132 188.976 146.625C191.504 147.535 191.807 147.26 191.898 144.477C191.898 144.477 192.076 144.343 192.185 144.319C192.462 145.346 192.631 146.397 192.8 147.449C191.638 147.633 190.321 148.255 189.347 147.911C187.293 147.186 185.413 145.963 183.471 144.928C181.88 144.08 181.918 142.797 182.597 141.185Z" fill="#ECECEC"/>
<path d="M133.078 117.033C135.128 114.963 135.908 115.023 137.232 117.529C138.412 115.731 139.414 115.177 141.625 116.607C142.622 117.253 145.582 115.752 147.109 114.543C151.467 111.091 156.22 110.014 161.509 111.332C167.216 112.755 170.714 118.314 170.008 124.531C169.327 130.526 164.782 134.796 158.917 135.131C154.262 135.397 150.2 134.196 146.764 130.961C144.927 129.232 142.612 129.085 140.285 130.12C137.975 131.148 137.946 128.862 137.021 127.543C136.39 129.093 135.555 130.198 133.667 128.926C133.445 128.603 133.367 128.499 133.289 128.395C133.213 128.574 133.136 128.753 133.059 128.933C130.607 130.92 129.918 130.816 128.375 128.228C124.997 122.562 125.047 121.772 129.147 116.663C130.234 115.307 131.37 115.025 132.58 116.893C133.369 118.694 134.129 120.163 134.846 121.758C134.945 122.655 135.088 123.426 135.231 124.197C135.497 124.108 135.763 124.019 136.029 123.93C135.673 123.147 135.316 122.365 134.95 121.403C134.32 119.827 133.699 118.43 133.078 117.033ZM136.222 125.131C136.06 125.137 135.898 125.144 135.736 125.151C135.927 125.218 136.118 125.286 136.2 125.617C136.211 125.942 136.208 126.27 136.259 126.588C136.263 126.614 136.64 126.58 136.844 126.574C136.679 126.152 136.513 125.73 136.222 125.131ZM164.307 116.274C165.085 117.226 165.862 118.178 166.821 119.351C166.642 116.357 164.372 114.093 161.741 114.299C162.641 114.974 163.353 115.508 164.307 116.274ZM132.161 125.422C131.734 124.198 131.306 122.974 130.879 121.749C130.641 121.839 130.404 121.928 130.167 122.018C129.988 124.191 131.626 125.683 132.387 127.503C132.564 127.436 132.741 127.37 132.918 127.304C132.681 126.789 132.444 126.275 132.161 125.422Z" fill="#FDFDFD"/>
<path d="M134.89 121.631C134.129 120.163 133.369 118.694 132.614 117.056C132.697 116.91 132.773 116.933 132.964 116.995C133.699 118.43 134.32 119.828 134.933 121.416C134.925 121.607 134.89 121.631 134.89 121.631Z" fill="#F6F6F6"/>
<path d="M133.179 128.941C133.136 128.753 133.213 128.574 133.289 128.395C133.367 128.499 133.445 128.603 133.531 128.812C133.458 128.928 133.379 128.939 133.179 128.941Z" fill="#F6F6F6"/>
<path d="M189.44 99.5581C190.855 99.8361 192.338 100.634 190.831 101.721C188.117 103.678 184.959 105.016 181.14 105.434C181.353 104.414 181.472 103.847 181.609 103.1C184.18 101.801 186.733 100.681 189.44 99.5581Z" fill="#DADADA"/>
<path d="M194.853 109.256C196.524 111.668 196.023 112.538 193.158 112.768C191.797 112.878 190.446 113.175 189.104 113.451C186.997 113.886 186.346 113.248 186.771 110.899C189.413 110.235 192.035 109.748 194.853 109.256Z" fill="#DADADA"/>
<path d="M191.72 144.461C191.807 147.26 191.504 147.536 188.976 146.625C187.606 146.132 186.301 145.421 185.038 144.686C183.868 144.004 183.628 143.099 184.932 142.008C187.194 142.72 189.368 143.583 191.72 144.461Z" fill="#DADADA"/>
<path d="M164.186 116.158C163.353 115.508 162.641 114.974 161.741 114.299C164.372 114.093 166.643 116.357 166.821 119.351C165.862 118.178 165.085 117.226 164.186 116.158Z" fill="#484848"/>
<path d="M132.184 125.591C132.444 126.275 132.681 126.79 132.918 127.304C132.741 127.37 132.564 127.437 132.388 127.503C131.626 125.683 129.988 124.192 130.167 122.018C130.404 121.929 130.641 121.839 130.879 121.749C131.306 122.974 131.734 124.198 132.184 125.591Z" fill="#F6F6F6"/>
<path d="M134.942 121.594C135.316 122.365 135.673 123.148 136.029 123.93C135.763 124.019 135.497 124.108 135.231 124.197C135.088 123.426 134.945 122.656 134.846 121.758C134.89 121.631 134.925 121.607 134.942 121.594Z" fill="#F6F6F6"/>
<path d="M136.347 125.308C136.513 125.73 136.679 126.152 136.845 126.574C136.64 126.58 136.263 126.614 136.259 126.589C136.208 126.27 136.211 125.942 136.265 125.474C136.329 125.332 136.347 125.308 136.347 125.308Z" fill="#F6F6F6"/>
<path d="M136.319 125.342C136.118 125.286 135.927 125.218 135.736 125.151C135.898 125.144 136.06 125.138 136.285 125.22C136.347 125.308 136.329 125.332 136.319 125.342Z" fill="#F6F6F6"/>
</svg>
